<svg id="圖層_1" data-name="圖層 1" xmlns="http://www.w3.org/2000/svg" viewBox="0 0 184.95 73.3"><defs><style>.cls-1{font-size:14.52px;font-family:DFYuan-Md-HKP-BF, DFPYuanMedium-B5;letter-spacing:0.8em;}.cls-1,.cls-2,.cls-3{fill:#1d3c33;}.cls-2{font-size:31.25px;font-family:DFYuan-Bd-HKP-BF, DFPYuanBold-B5;letter-spacing:0.2em;}</style></defs><text class="cls-1" transform="translate(61.17 70.4)">HOTEL</text><text class="cls-2" transform="translate(55.51 45.78)">TESTO</text><path class="cls-3" d="M39.89,71.89a7.7,7.7,0,0,1-5.15-2c-1.42-1.42-2.1-4.55-2.1-9.6V11.88H10.28c-4.51,0-7.2-.55-8.22-1.68A6,6,0,0,1,0,6,5.74,5.74,0,0,1,1.94,1.94C3,.64,5.77,0,10.28,0H69.64c4.51,0,7.3.69,8.51,2.1A5.46,5.46,0,0,1,79.92,6a5.51,5.51,0,0,1-2,4.09c-1.2,1.19-3.93,1.78-8.33,1.78H47.14V60.24c0,5.14-.68,8.32-2.07,9.72A7.71,7.71,0,0,1,39.89,71.89ZM10.28,1c-5.16,0-7,.88-7.61,1.61A4.87,4.87,0,0,0,1,6a5.11,5.11,0,0,0,1.78,3.5c.58.64,2.33,1.37,7.5,1.37H33.64V60.24c0,4.7.6,7.69,1.78,8.87a6.71,6.71,0,0,0,9,.12c1.15-1.16,1.75-4.2,1.75-9V10.88h23.5c5.07,0,7-.82,7.64-1.5A4.49,4.49,0,0,0,78.92,6a4.56,4.56,0,0,0-1.51-3.23C76.7,2,74.8,1,69.64,1Z"/></svg>